<?xml version="1.0" encoding="UTF-8" standalone="no"?>
<!DOCTYPE svg PUBLIC "-//W3C//DTD SVG 1.1//EN" "http://www.w3.org/Graphics/SVG/1.1/DTD/svg11.dtd">
<svg width="100%" height="100%" viewBox="0 0 60 60" version="1.1" xmlns="http://www.w3.org/2000/svg" xmlns:xlink="http://www.w3.org/1999/xlink" xml:space="preserve" xmlns:serif="http://www.serif.com/" style="fill-rule:evenodd;clip-rule:evenodd;stroke-linejoin:round;stroke-miterlimit:2;">
    <g transform="matrix(1,0,0,1,-663.359,-908.324)">
        <g transform="matrix(1.33333,0,0,1.33333,-84.6414,-169.009)">
            <path d="M606,819.25C606,813.041 600.959,808 594.75,808L572.25,808C566.041,808 561,813.041 561,819.25L561,841.75C561,847.959 566.041,853 572.25,853L594.75,853C600.959,853 606,847.959 606,841.75L606,819.25Z"/>
        </g>
        <g transform="matrix(1,0,0,1,0,73.622)">
            <path d="M683.288,873.686L679.968,873.686L679.968,868.315L684.362,868.315L685.827,861.113L679.968,861.113L679.968,855.717L686.926,855.717L688.854,846.196L694.323,846.196L692.394,855.717L697.79,855.717L699.67,846.196L705.334,846.196L703.381,855.717L706.75,855.717L706.75,861.113L702.282,861.113L700.817,868.315L706.75,868.315L706.75,873.686L699.718,873.686L697.79,883.208L692.345,883.208L694.225,873.686L688.805,873.686L686.877,883.208L681.359,883.208L683.288,873.686ZM691.32,861.113L689.88,868.315L695.3,868.315L696.716,861.113L691.32,861.113Z" style="fill:white;fill-rule:nonzero;"/>
        </g>
    </g>
</svg>
